<svg width="13" height="16" viewBox="0 0 13 16" fill="none" xmlns="http://www.w3.org/2000/svg">
<path d="M12.7778 0.145004C12.7585 0.101615 12.7269 0.0648056 12.687 0.03906C12.6472 0.0133145 12.6007 -0.000255464 12.5532 3.64241e-06H5.59971C5.55795 7.33269e-05 5.51687 0.0106378 5.48024 0.0307292C5.44361 0.0508207 5.4126 0.0797969 5.39005 0.115004L0.0438901 8.615C0.018152 8.65201 0.00311432 8.69542 0.000433804 8.74045C-0.00224672 8.78547 0.00753396 8.83037 0.0286983 8.87018C0.0498627 8.90999 0.0815892 8.94318 0.120382 8.96609C0.159174 8.98899 0.203526 9.00073 0.248552 9H4.07722L0.697809 15.625C0.678407 15.6644 0.669288 15.7081 0.671303 15.752C0.673317 15.7958 0.686401 15.8385 0.709331 15.8759C0.732262 15.9134 0.764292 15.9444 0.802431 15.9661C0.84057 15.9878 0.883575 15.9995 0.92743 16H2.42496C2.4596 16.0002 2.49391 15.9932 2.52571 15.9795C2.55751 15.9657 2.58609 15.9454 2.60965 15.92L11.3802 6.425C11.415 6.38945 11.4384 6.3443 11.4474 6.29533C11.4565 6.24635 11.4507 6.1958 11.4308 6.15013C11.411 6.10447 11.378 6.06579 11.3361 6.03904C11.2941 6.01229 11.2452 5.9987 11.1955 6H7.83102L12.7379 0.410003C12.7695 0.374491 12.7902 0.330518 12.7973 0.283458C12.8044 0.236397 12.7976 0.188286 12.7778 0.145004Z" fill="white"/>
</svg>
